<?xml version="1.0" encoding="UTF-8"?>
<svg viewBox="0 0 800 400" xmlns="http://www.w3.org/2000/svg">
  <!-- Background gradients and patterns -->
  <defs>
    <linearGradient id="bgGradient" x1="0%" y1="0%" x2="100%" y2="100%">
      <stop offset="0%" stop-color="#005f73"/>
      <stop offset="100%" stop-color="#0a9396"/>
    </linearGradient>
    
    <linearGradient id="titleGradient" x1="0%" y1="0%" x2="100%" y2="0%">
      <stop offset="0%" stop-color="#e9d8a6"/>
      <stop offset="50%" stop-color="#ee9b00"/>
      <stop offset="100%" stop-color="#ca6702"/>
    </linearGradient>
    
    <filter id="dropShadow" x="-20%" y="-20%" width="140%" height="140%">
      <feGaussianBlur in="SourceAlpha" stdDeviation="3"/>
      <feOffset dx="2" dy="2" result="offsetblur"/>
      <feComponentTransfer>
        <feFuncA type="linear" slope="0.5"/>
      </feComponentTransfer>
      <feMerge>
        <feMergeNode/>
        <feMergeNode in="SourceGraphic"/>
      </feMerge>
    </filter>
    
    <filter id="glow" x="-20%" y="-20%" width="140%" height="140%">
      <feGaussianBlur in="SourceGraphic" stdDeviation="5" result="blur"/>
      <feComposite in="SourceGraphic" in2="blur" operator="over"/>
    </filter>
    
    <pattern id="leafPattern" width="100" height="100" patternUnits="userSpaceOnUse">
      <path d="M20,20 Q30,5 40,20 T60,20" fill="none" stroke="#e9d8a6" stroke-width="1" opacity="0.3"/>
      <path d="M70,70 Q80,55 90,70 T110,70" fill="none" stroke="#e9d8a6" stroke-width="1" opacity="0.3"/>
      <path d="M10,80 Q20,65 30,80 T50,80" fill="none" stroke="#e9d8a6" stroke-width="1" opacity="0.3"/>
      <path d="M80,30 Q90,15 100,30 T120,30" fill="none" stroke="#e9d8a6" stroke-width="1" opacity="0.3"/>
    </pattern>
  </defs>
  
  <!-- Main background -->
  <rect width="800" height="400" fill="url(#bgGradient)"/>
  
  <!-- Pattern overlay -->
  <rect width="800" height="400" fill="url(#leafPattern)" opacity="0.4"/>
  
  <!-- Decorative seasonal elements -->
  <!-- Stylized sun -->
  <g transform="translate(100, 100)">
    <circle cx="0" cy="0" r="30" fill="#ee9b00" opacity="0.7"/>
    <g stroke="#ee9b00" stroke-width="2" opacity="0.5">
      <line x1="0" y1="-40" x2="0" y2="-60"/>
      <line x1="28" y1="-28" x2="42" y2="-42"/>
      <line x1="40" y1="0" x2="60" y2="0"/>
      <line x1="28" y1="28" x2="42" y2="42"/>
      <line x1="0" y1="40" x2="0" y2="60"/>
      <line x1="-28" y1="28" x2="-42" y2="42"/>
      <line x1="-40" y1="0" x2="-60" y2="0"/>
      <line x1="-28" y1="-28" x2="-42" y2="-42"/>
    </g>
  </g>
  
  <!-- Stylized leaves -->
  <g transform="translate(650, 120)" fill="#94d2bd" opacity="0.7">
    <path d="M0,0 C20,-20 40,-10 30,10 C50,0 50,30 30,30 C50,40 30,60 10,50 C0,70 -20,60 -10,40 C-30,50 -40,20 -20,10 C-40,0 -20,-20 0,0 Z"/>
  </g>
  
  <g transform="translate(700, 320)" fill="#94d2bd" opacity="0.6">
    <path d="M0,0 C10,-15 25,-5 15,5 C30,0 30,20 15,15 C25,25 15,35 5,25 C0,35 -10,30 -5,20 C-15,25 -20,10 -10,5 C-20,0 -10,-10 0,0 Z"/>
  </g>
  
  <g transform="translate(180, 310)" fill="#94d2bd" opacity="0.6">
    <path d="M0,0 C15,-20 35,-10 25,10 C40,0 40,25 25,25 C40,35 25,50 10,40 C0,55 -15,45 -10,30 C-25,40 -30,15 -15,10 C-30,0 -15,-15 0,0 Z"/>
  </g>
  
  <!-- Shopping bags -->
  <g transform="translate(150, 230)" fill="#ee9b00" opacity="0.8">
    <path d="M-15,0 L15,0 L20,40 L-20,40 Z" fill="#ee9b00"/>
    <path d="M-10,-15 Q-10,-5 0,-5 Q10,-5 10,-15" fill="none" stroke="#ee9b00" stroke-width="3"/>
  </g>
  
  <g transform="translate(620, 250)" fill="#ee9b00" opacity="0.8">
    <path d="M-20,0 L20,0 L25,50 L-25,50 Z" fill="#ee9b00"/>
    <path d="M-12,-20 Q-12,-7 0,-7 Q12,-7 12,-20" fill="none" stroke="#ee9b00" stroke-width="4"/>
  </g>
  
  <!-- Main Title with drop shadow -->
  <g filter="url(#dropShadow)">
    <text x="400" y="140" font-family="Arial, sans-serif" font-size="72" font-weight="bold" text-anchor="middle" fill="url(#titleGradient)">SEASONAL SALE</text>
  </g>
  
  <!-- Sale percentage -->
  <g transform="translate(400, 200)">
    <circle cx="0" cy="0" r="60" fill="#e63946" opacity="0.9"/>
    <text x="0" y="10" font-family="Arial, sans-serif" font-size="50" font-weight="bold" text-anchor="middle" fill="#ffffff">50%</text>
    <text x="0" y="30" font-family="Arial, sans-serif" font-size="16" font-weight="bold" text-anchor="middle" fill="#ffffff">OFF</text>
  </g>
  
  <!-- Tagline -->
  <text x="400" y="280" font-family="Arial, sans-serif" font-size="24" font-weight="500" text-anchor="middle" fill="#ffffff" opacity="0.9">SPRING INTO SAVINGS</text>
  
  <!-- Limited time banner -->
  <g transform="translate(400, 320)">
    <rect x="-175" y="-20" width="350" height="40" rx="20" ry="20" fill="#001219" opacity="0.7"/>
    <text x="0" y="5" font-family="Arial, sans-serif" font-size="18" font-weight="bold" text-anchor="middle" fill="#ffffff">LIMITED TIME OFFER • ENDS MAY 31</text>
  </g>
  
  <!-- Animated elements -->
  <g>
    <!-- Sparkles -->
    <circle cx="250" cy="140" r="2" fill="#ffffff">
      <animate attributeName="opacity" values="0.2;1;0.2" dur="2s" repeatCount="indefinite"/>
    </circle>
    <circle cx="550" cy="140" r="2" fill="#ffffff">
      <animate attributeName="opacity" values="0.2;1;0.2" dur="1.5s" repeatCount="indefinite"/>
    </circle>
    <circle cx="200" cy="180" r="2" fill="#ffffff">
      <animate attributeName="opacity" values="0.2;1;0.2" dur="3s" repeatCount="indefinite"/>
    </circle>
    <circle cx="600" cy="180" r="2" fill="#ffffff">
      <animate attributeName="opacity" values="0.2;1;0.2" dur="2.5s" repeatCount="indefinite"/>
    </circle>
    
    <!-- Sale tag swing animation -->
    <g transform="translate(480, 190)">
      <animateTransform attributeName="transform" type="rotate" from="-5" to="5" dur="2s" repeatCount="indefinite" additive="sum"/>
      <path d="M0,0 L30,0 L40,10 L40,40 L20,60 L0,40 Z" fill="#ee9b00" opacity="0.9"/>
      <text x="20" y="30" font-family="Arial, sans-serif" font-size="12" font-weight="bold" text-anchor="middle" fill="#ffffff">SALE</text>
    </g>
  </g>
  
  <!-- Shine effect over title -->
  <g>
    <linearGradient id="shineGradient" x1="0%" y1="0%" x2="100%" y2="0%">
      <stop offset="0%" stop-color="rgba(255,255,255,0)"/>
      <stop offset="45%" stop-color="rgba(255,255,255,0)"/>
      <stop offset="50%" stop-color="rgba(255,255,255,0.5)"/>
      <stop offset="55%" stop-color="rgba(255,255,255,0)"/>
      <stop offset="100%" stop-color="rgba(255,255,255,0)"/>
    </linearGradient>
    <rect x="100" y="110" width="600" height="60" fill="url(#shineGradient)" opacity="0.7">
      <animate attributeName="x" from="-600" to="800" dur="3s" repeatCount="indefinite"/>
    </rect>
  </g>
</svg>