<?xml version="1.0" encoding="UTF-8"?>
<svg viewBox="0 0 800 400" xmlns="http://www.w3.org/2000/svg">
  <!-- Background gradients -->
  <defs>
    <linearGradient id="bgGradient" x1="0%" y1="0%" x2="100%" y2="100%">
      <stop offset="0%" stop-color="#0B0B3B"/>
      <stop offset="100%" stop-color="#2E0854"/>
    </linearGradient>
    
    <linearGradient id="titleGradient" x1="0%" y1="0%" x2="100%" y2="0%">
      <stop offset="0%" stop-color="#4CC9F0"/>
      <stop offset="50%" stop-color="#4361EE"/>
      <stop offset="100%" stop-color="#7209B7"/>
    </linearGradient>
    
    <filter id="glow" x="-20%" y="-20%" width="140%" height="140%">
      <feGaussianBlur in="SourceGraphic" stdDeviation="5" result="blur"/>
      <feComposite in="SourceGraphic" in2="blur" operator="over"/>
    </filter>
    
    <filter id="dropShadow" x="-20%" y="-20%" width="140%" height="140%">
      <feGaussianBlur in="SourceAlpha" stdDeviation="4"/>
      <feOffset dx="2" dy="2" result="offsetblur"/>
      <feComponentTransfer>
        <feFuncA type="linear" slope="0.3"/>
      </feComponentTransfer>
      <feMerge>
        <feMergeNode/>
        <feMergeNode in="SourceGraphic"/>
      </feMerge>
    </filter>
    
    <!-- Grid pattern -->
    <pattern id="grid" width="40" height="40" patternUnits="userSpaceOnUse">
      <path d="M 40 0 L 0 0 0 40" fill="none" stroke="#4361EE" stroke-width="0.5" opacity="0.3"/>
    </pattern>
  </defs>
  
  <!-- Main background -->
  <rect width="800" height="400" fill="url(#bgGradient)"/>
  
  <!-- Grid background -->
  <rect width="800" height="400" fill="url(#grid)"/>
  
  <!-- Tech circuit lines -->
  <g stroke="#4CC9F0" stroke-width="1.5" fill="none" opacity="0.4">
    <path d="M0,100 C100,120 200,80 300,150 C400,220 500,180 600,200 C700,220 800,180 800,150" />
    <path d="M0,200 C100,180 200,220 300,180 C400,140 500,200 600,150 C700,100 800,150 800,100" />
    <path d="M0,300 C100,320 200,280 300,350 C400,420 500,380 600,400 C700,420 800,380 800,350" />
    
    <!-- Circuit nodes -->
    <circle cx="100" cy="120" r="5" fill="#4CC9F0"/>
    <circle cx="300" cy="150" r="5" fill="#4CC9F0"/>
    <circle cx="500" cy="180" r="5" fill="#4CC9F0"/>
    <circle cx="700" cy="220" r="5" fill="#4CC9F0"/>
    
    <circle cx="200" cy="220" r="5" fill="#4CC9F0"/>
    <circle cx="400" cy="140" r="5" fill="#4CC9F0"/>
    <circle cx="600" cy="150" r="5" fill="#4CC9F0"/>
    
    <circle cx="150" cy="320" r="5" fill="#4CC9F0"/>
    <circle cx="350" cy="350" r="5" fill="#4CC9F0"/>
    <circle cx="550" cy="380" r="5" fill="#4CC9F0"/>
    <circle cx="750" cy="380" r="5" fill="#4CC9F0"/>
  </g>
  
  <!-- Tech-related icons -->
  <!-- Code brackets -->
  <g transform="translate(80, 250) scale(0.8)" fill="#7209B7" opacity="0.9" filter="url(#glow)">
    <path d="M0,0 L30,50 L0,100" stroke="#4CC9F0" stroke-width="8" fill="none"/>
    <path d="M80,0 L50,50 L80,100" stroke="#4CC9F0" stroke-width="8" fill="none"/>
  </g>
  
  <!-- Microchip -->
  <g transform="translate(650, 280) scale(0.8)" fill="none" stroke="#4CC9F0" stroke-width="2" opacity="0.9">
    <rect x="0" y="0" width="80" height="80" rx="5" ry="5"/>
    <rect x="20" y="20" width="40" height="40"/>
    <line x1="0" y1="20" x2="20" y2="20"/>
    <line x1="0" y1="40" x2="20" y2="40"/>
    <line x1="0" y1="60" x2="20" y2="60"/>
    <line x1="80" y1="20" x2="60" y2="20"/>
    <line x1="80" y1="40" x2="60" y2="40"/>
    <line x1="80" y1="60" x2="60" y2="60"/>
    <line x1="20" y1="0" x2="20" y2="20"/>
    <line x1="40" y1="0" x2="40" y2="20"/>
    <line x1="60" y1="0" x2="60" y2="20"/>
    <line x1="20" y1="80" x2="20" y2="60"/>
    <line x1="40" y1="80" x2="40" y2="60"/>
    <line x1="60" y1="80" x2="60" y2="60"/>
  </g>
  
  <!-- VR Headset -->
  <g transform="translate(100, 110) scale(0.6)" fill="#4361EE" opacity="0.7">
    <rect x="0" y="0" width="100" height="50" rx="10" ry="10" fill="#4361EE"/>
    <rect x="10" y="10" width="30" height="30" rx="5" ry="5" fill="#0B0B3B"/>
    <rect x="60" y="10" width="30" height="30" rx="5" ry="5" fill="#0B0B3B"/>
    <path d="M0,25 C0,60 100,60 100,25" stroke="#4361EE" stroke-width="5" fill="none"/>
  </g>
  
  <!-- Binary code -->
  <g transform="translate(600, 120)" font-family="monospace" font-size="16" opacity="0.5">
    <text x="0" y="0" fill="#4CC9F0">10110101</text>
    <text x="0" y="20" fill="#4CC9F0">01011010</text>
    <text x="0" y="40" fill="#4CC9F0">11100111</text>
    <text x="0" y="60" fill="#4CC9F0">00101100</text>
  </g>
  
  <!-- Main Title -->
  <g filter="url(#dropShadow)">
    <text x="400" y="140" font-family="Arial, sans-serif" font-size="72" font-weight="bold" text-anchor="middle" fill="url(#titleGradient)">TECH WEEK</text>
  </g>
  
  <!-- Tagline -->
  <text x="400" y="200" font-family="Arial, sans-serif" font-size="24" font-weight="500" text-anchor="middle" fill="#FFFFFF" opacity="0.9">INNOVATE · CONNECT · TRANSFORM</text>
  
  <!-- Dates -->
  <rect x="270" y="230" width="260" height="50" rx="25" ry="25" fill="#4361EE" opacity="0.7"/>
  <text x="400" y="263" font-family="Arial, sans-serif" font-size="22" font-weight="bold" text-anchor="middle" fill="#FFFFFF">MAY 12-18, 2025</text>
  
  <!-- Animated elements -->
  <g>
    <circle cx="200" cy="130" r="3" fill="#4CC9F0">
      <animate attributeName="opacity" values="0.2;1;0.2" dur="3s" repeatCount="indefinite"/>
    </circle>
    <circle cx="600" cy="190" r="3" fill="#4CC9F0">
      <animate attributeName="opacity" values="0.2;1;0.2" dur="2s" repeatCount="indefinite"/>
    </circle>
    <circle cx="480" cy="320" r="3" fill="#4CC9F0">
      <animate attributeName="opacity" values="0.2;1;0.2" dur="4s" repeatCount="indefinite"/>
    </circle>
    <circle cx="150" cy="250" r="3" fill="#4CC9F0">
      <animate attributeName="opacity" values="0.2;1;0.2" dur="3.5s" repeatCount="indefinite"/>
    </circle>
    <circle cx="700" cy="150" r="3" fill="#4CC9F0">
      <animate attributeName="opacity" values="0.2;1;0.2" dur="2.5s" repeatCount="indefinite"/>
    </circle>
  </g>
  
  <!-- Shine effect over text -->
  <g>
    <linearGradient id="shineGradient" x1="0%" y1="0%" x2="100%" y2="0%">
      <stop offset="0%" stop-color="rgba(255,255,255,0)"/>
      <stop offset="45%" stop-color="rgba(255,255,255,0)"/>
      <stop offset="50%" stop-color="rgba(255,255,255,0.5)"/>
      <stop offset="55%" stop-color="rgba(255,255,255,0)"/>
      <stop offset="100%" stop-color="rgba(255,255,255,0)"/>
    </linearGradient>
    <rect x="100" y="110" width="600" height="60" fill="url(#shineGradient)" opacity="0.7">
      <animate attributeName="x" from="-600" to="800" dur="4s" repeatCount="indefinite"/>
    </rect>
  </g>
</svg>